REM DIRINDEX 1\4,1\2\5,1\2\6,1\3\7,1\3\8
REM DIRNAME folder01,folder02,folder03,folder04,folder05,folder06,folder07,folder08
TITLE ""
FILE "087_Day44_Check2_Phrases.mp3" MP3
  TRACK 01 AUDIO
    TITLE "0:"
    INDEX 01 00:00:00
  TRACK 02 AUDIO
    TITLE "4:cjc124_2841"
    INDEX 01 00:00:33
  TRACK 03 AUDIO
    TITLE "0:"
    INDEX 01 00:01:56
  TRACK 04 AUDIO
    TITLE "5:cjc124_2842"
    INDEX 01 00:02:16
  TRACK 05 AUDIO
    TITLE "0:"
    INDEX 01 00:03:59
  TRACK 06 AUDIO
    TITLE "6:cjc124_2843"
    INDEX 01 00:04:17
  TRACK 07 AUDIO
    TITLE "0:"
    INDEX 01 00:05:57
  TRACK 08 AUDIO
    TITLE "5:cjc124_2844"
    INDEX 01 00:06:20
  TRACK 09 AUDIO
    TITLE "0:"
    INDEX 01 00:08:17
  TRACK 10 AUDIO
    TITLE "6:cjc124_2845"
    INDEX 01 00:08:34
  TRACK 11 AUDIO
    TITLE "0:"
    INDEX 01 00:10:06
  TRACK 12 AUDIO
    TITLE "5:cjc124_2846"
    INDEX 01 00:10:45
  TRACK 13 AUDIO
    TITLE "0:"
    INDEX 01 00:12:18
  TRACK 14 AUDIO
    TITLE "6:cjc124_2847"
    INDEX 01 00:12:34
  TRACK 15 AUDIO
    TITLE "0:"
    INDEX 01 00:13:65
  TRACK 16 AUDIO
    TITLE "5:cjc124_2848"
    INDEX 01 00:14:27
  TRACK 17 AUDIO
    TITLE "0:"
    INDEX 01 00:16:08
  TRACK 18 AUDIO
    TITLE "6:cjc124_2849"
    INDEX 01 00:16:24
  TRACK 19 AUDIO
    TITLE "0:"
    INDEX 01 00:17:43
  TRACK 20 AUDIO
    TITLE "5:cjc124_2850"
    INDEX 01 00:18:05
  TRACK 21 AUDIO
    TITLE "0:"
    INDEX 01 00:20:02
  TRACK 22 AUDIO
    TITLE "6:cjc124_2851"
    INDEX 01 00:20:18
  TRACK 23 AUDIO
    TITLE "0:"
    INDEX 01 00:21:53
  TRACK 24 AUDIO
    TITLE "5:cjc124_2852"
    INDEX 01 00:22:19
  TRACK 25 AUDIO
    TITLE "0:"
    INDEX 01 00:24:02
  TRACK 26 AUDIO
    TITLE "6:cjc124_2853"
    INDEX 01 00:24:22
  TRACK 27 AUDIO
    TITLE "0:"
    INDEX 01 00:25:66
  TRACK 28 AUDIO
    TITLE "5:cjc124_2854"
    INDEX 01 00:26:32
  TRACK 29 AUDIO
    TITLE "0:"
    INDEX 01 00:28:43
  TRACK 30 AUDIO
    TITLE "6:cjc124_2855"
    INDEX 01 00:28:57
  TRACK 31 AUDIO
    TITLE "0:"
    INDEX 01 00:30:34
  TRACK 32 AUDIO
    TITLE "5:cjc124_2856"
    INDEX 01 00:30:71
  TRACK 33 AUDIO
    TITLE "0:"
    INDEX 01 00:32:33
  TRACK 34 AUDIO
    TITLE "6:cjc124_2857"
    INDEX 01 00:32:48
  TRACK 35 AUDIO
    TITLE "0:"
    INDEX 01 00:34:26
  TRACK 36 AUDIO
    TITLE "5:cjc124_2858"
    INDEX 01 00:34:63
  TRACK 37 AUDIO
    TITLE "0:"
    INDEX 01 00:36:38
  TRACK 38 AUDIO
    TITLE "6:cjc124_2859"
    INDEX 01 00:36:54
  TRACK 39 AUDIO
    TITLE "0:"
    INDEX 01 00:38:22
  TRACK 40 AUDIO
    TITLE "5:cjc124_2860"
    INDEX 01 00:38:63
  TRACK 41 AUDIO
    TITLE "0:"
    INDEX 01 00:40:60
  TRACK 42 AUDIO
    TITLE "6:cjc124_2861"
    INDEX 01 00:41:02
  TRACK 43 AUDIO
    TITLE "0:"
    INDEX 01 00:42:21
  TRACK 44 AUDIO
    TITLE "5:cjc124_2862"
    INDEX 01 00:42:59
  TRACK 45 AUDIO
    TITLE "0:"
    INDEX 01 00:44:40
  TRACK 46 AUDIO
    TITLE "6:cjc124_2863"
    INDEX 01 00:44:58
  TRACK 47 AUDIO
    TITLE "0:"
    INDEX 01 00:46:56
  TRACK 48 AUDIO
    TITLE "5:cjc124_2864"
    INDEX 01 00:47:21
  TRACK 49 AUDIO
    TITLE "0:"
    INDEX 01 00:49:53
  TRACK 50 AUDIO
    TITLE "6:cjc124_2865"
    INDEX 01 00:50:01
  TRACK 51 AUDIO
    TITLE "0:"
    INDEX 01 00:51:63
  TRACK 52 AUDIO
    TITLE "5:cjc124_2866"
    INDEX 01 00:52:26
  TRACK 53 AUDIO
    TITLE "0:"
    INDEX 01 00:54:03
  TRACK 54 AUDIO
    TITLE "6:cjc124_2867"
    INDEX 01 00:54:19
  TRACK 55 AUDIO
    TITLE "0:"
    INDEX 01 00:55:53
  TRACK 56 AUDIO
    TITLE "5:cjc124_2868"
    INDEX 01 00:56:16
  TRACK 57 AUDIO
    TITLE "0:"
    INDEX 01 00:58:11
  TRACK 58 AUDIO
    TITLE "6:cjc124_2869"
    INDEX 01 00:58:28
  TRACK 59 AUDIO
    TITLE "0:"
    INDEX 01 01:00:15
  TRACK 60 AUDIO
    TITLE "5:cjc124_2870"
    INDEX 01 01:00:53
  TRACK 61 AUDIO
    TITLE "0:"
    INDEX 01 01:02:44
  TRACK 62 AUDIO
    TITLE "6:cjc124_2871"
    INDEX 01 01:02:61
  TRACK 63 AUDIO
    TITLE "0:"
    INDEX 01 01:04:07
  TRACK 64 AUDIO
    TITLE "5:cjc124_2872"
    INDEX 01 01:04:45
  TRACK 65 AUDIO
    TITLE "0:"
    INDEX 01 01:06:30
  TRACK 66 AUDIO
    TITLE "6:cjc124_2873"
    INDEX 01 01:06:47
  TRACK 67 AUDIO
    TITLE "0:"
    INDEX 01 01:08:07
